<?xml version="1.0" standalone="no"?>
<!DOCTYPE svg PUBLIC "-//W3C//DTD SVG 20010904//EN"
 "http://www.w3.org/TR/2001/REC-SVG-20010904/DTD/svg10.dtd">
<svg version="1.0" xmlns="http://www.w3.org/2000/svg"
 width="256.000000pt" height="256.000000pt" viewBox="0 0 256.000000 256.000000"
 preserveAspectRatio="xMidYMid meet">
<metadata>
Created by potrace 1.14, written by Peter Selinger 2001-2017
</metadata>
<g transform="translate(0.000000,256.000000) scale(0.100000,-0.100000)"
fill="#000000" stroke="none">
<path d="M1252 2148 c-181 -185 -205 -222 -264 -403 -26 -78 -59 -170 -75
-205 -16 -36 -35 -79 -42 -96 -12 -31 -12 -31 -76 -25 -17 2 -41 51 -55 111
-7 30 -17 63 -22 73 -9 17 -11 17 -35 1 -30 -19 -113 -103 -152 -154 -15 -19
-42 -73 -61 -120 -18 -47 -51 -123 -73 -170 -22 -47 -40 -88 -39 -92 1 -5 -2
-8 -6 -8 -5 0 -17 -19 -27 -42 -10 -24 -24 -50 -31 -58 -7 -8 -13 -19 -13 -25
-2 -21 -13 -45 -20 -45 -4 0 -8 -6 -8 -12 -1 -29 -73 -166 -107 -202 -20 -22
-36 -44 -36 -48 0 -4 -6 -8 -14 -8 -13 0 -26 -20 -26 -41 0 -5 10 -9 23 -9 19
0 17 -5 -20 -38 l-43 -37 38 -17 c67 -30 76 -31 182 -34 118 -2 129 -4 148
-22 7 -6 20 -13 28 -13 15 -2 31 -5 39 -9 13 -7 32 -5 49 3 13 7 16 6 11 -3
-5 -9 -2 -10 11 -3 11 5 28 8 39 7 11 -2 48 -5 82 -8 34 -2 67 -7 73 -11 19
-12 142 -22 330 -29 19 0 38 -5 42 -11 5 -6 8 -5 8 3 0 7 5 10 12 6 6 -4 52
-9 102 -11 50 -2 114 -6 141 -9 28 -3 69 -7 93 -7 23 -1 42 -4 42 -7 0 -3 32
-5 70 -5 39 0 70 4 70 9 0 4 6 3 13 -3 8 -6 17 -8 20 -4 4 3 28 8 55 9 26 1
74 5 107 9 33 3 85 7 115 9 91 6 147 26 134 47 -3 5 -2 9 3 10 73 7 253 78
289 114 7 7 41 18 75 24 35 6 67 15 73 21 6 6 -10 31 -50 72 -77 81 -191 227
-239 305 -5 10 -14 22 -18 27 -42 55 -127 203 -201 351 -50 100 -92 185 -93
190 -1 6 -16 53 -33 105 -18 52 -33 100 -35 105 -6 27 -26 63 -52 93 -27 33
-29 33 -73 22 -25 -6 -53 -13 -64 -15 -17 -4 -61 35 -150 135 -24 28 -97 150
-146 244 -8 16 -20 31 -26 33 -6 2 -47 -34 -92 -79z"/>
</g>
</svg>
